<?xml version="1.0" encoding="utf-8"?>
<!-- Generator: Adobe Illustrator 13.0.1, SVG Export Plug-In . SVG Version: 6.00 Build 14948)  -->
<!DOCTYPE svg PUBLIC "-//W3C//DTD SVG 1.1//EN" "http://www.w3.org/Graphics/SVG/1.1/DTD/svg11.dtd">
<svg version="1.1" id="Layer_1" xmlns="http://www.w3.org/2000/svg" xmlns:xlink="http://www.w3.org/1999/xlink" x="0px" y="0px"
	 width="1035.628px" height="799.298px" viewBox="0 0 1035.628 799.298" enable-background="new 0 0 1035.628 799.298"
	 xml:space="preserve">
<rect x="301.764" y="173.493" fill-rule="evenodd" clip-rule="evenodd" fill="#424439" width="468" height="468"/>
<path fill-rule="evenodd" clip-rule="evenodd" fill="#E41B5B" d="M127.993,680.199l343.088-343.074l54.335-54.318l27.165-27.16
	c2.49-2.526,4.083-3.998,5.348-5.928c1.267-1.935,2.433-3.973,3.075-6.218c1.444-4.418,1.526-9.288,0.292-13.773
	c-2.389-9.025-10.625-16.17-19.898-17.255c-4.616-0.632-9.427,0.163-13.585,2.207c-2.061,1.046-4.05,2.291-5.725,3.934
	c-1.852,1.69-4.408,4.366-6.58,6.503l6.807,6.798l-23.695-2.572l-2.606-23.7l6.807,6.798c2.395-2.351,4.233-4.338,7.087-6.989
	c2.934-2.814,6.398-5.076,10.041-6.891c7.331-3.595,15.707-4.958,23.771-3.874c16.297,1.945,30.647,14.368,34.862,30.248
	c2.17,7.858,2.014,16.317-0.511,24.079c-1.18,3.91-3.137,7.553-5.404,10.926c-2.277,3.432-5.413,6.363-7.405,8.39l-27.165,27.162
	l-54.334,54.318L140.672,692.882L127.993,680.199z"/>
<g>
	<path fill-rule="evenodd" clip-rule="evenodd" fill="#27A5CC" d="M152.333,793.919l413.393-413.394l32.768,32.769l20.638-147.27
		L471.864,286.66l32.768,32.773L91.243,732.823L152.333,793.919z"/>
	<polygon fill-rule="evenodd" clip-rule="evenodd" fill="#E68A00" points="152.333,787.621 97.542,732.822 507.782,322.583 
		510.934,319.433 507.782,316.283 481.334,289.834 613.899,271.258 595.321,403.82 568.876,377.375 565.727,374.224 
		562.577,377.375 152.333,787.621 	"/>
	<polygon fill-rule="evenodd" clip-rule="evenodd" fill="#77C21D" points="152.333,781.315 103.848,732.824 510.933,325.736 
		517.233,319.434 510.933,313.134 490.809,293.005 608.666,276.492 592.149,394.345 572.027,374.224 565.725,367.924 
		559.423,374.224 152.333,781.315 	"/>
	<polygon fill-rule="evenodd" clip-rule="evenodd" fill="#616353" points="152.332,775.014 110.149,732.823 514.083,328.887 
		520.384,322.584 523.535,319.431 520.384,316.283 514.083,309.984 500.281,296.177 603.433,281.722 588.976,384.873 
		575.178,371.073 568.875,364.772 565.724,361.626 562.574,364.774 556.273,371.073 152.332,775.014 	"/>
</g>
<path fill-rule="evenodd" clip-rule="evenodd" fill="#282A1F" d="M220.135,753.298l450.263-450.264l8.537,8.537l5.375-38.363
	l-38.362,5.376l8.536,8.536L204.221,737.384L220.135,753.298z"/>
<polygon fill-rule="evenodd" clip-rule="evenodd" fill="#77C21D" points="237.738,724.054 228.464,714.783 584.549,358.695 
	586.235,357.009 584.549,355.324 581.15,351.924 603.764,348.754 600.594,371.367 597.195,367.968 595.508,366.284 593.823,367.968 
	237.738,724.054 "/>
<g>
	<g>
		<path fill-rule="evenodd" clip-rule="evenodd" fill="#E68A00" d="M0,605.397h467.739c7.464,0.146,9.979-0.125,14.496-1.904
			c3.969-1.732,7.41-4.629,9.876-8.207c2.385-3.631,3.781-7.836,3.861-12.207c0.081-5.891,0.022-12.764,0.041-19.096v-38.76v-38.76
			c-0.106-6.43,0.312-13.598-0.52-16.973c-0.916-4.227-3.043-8.154-6.095-11.268c-3.082-3.072-6.978-5.281-11.194-6.223
			c-3.383-0.961-10.271-0.471-16.82-0.598h-38.76h-38.761h-19.379c-6.89,0.355-16.82-1.287-24.045-5.414
			c-15.334-7.711-24.908-26.02-23.906-41.955v-38.76v-38.76v-19.38c0.008-3.283-0.02-6.342,0.019-9.81
			c0.071-4.278,0.724-8.56,1.938-12.69c4.874-16.604,19.894-29.516,37.074-31.75c2.117-0.396,4.272-0.364,6.398-0.487h4.845h9.69
			h19.38v-12.072l30.121,23.325l-30.121,23.325v-12.072h-19.38h-9.69h-4.845c-1.091,0.123-2.192,0.02-3.252,0.267
			c-8.591,1.077-16.247,7.667-18.682,15.989c-0.591,2.076-0.922,4.221-0.972,6.405c-0.036,2.99-0.01,6.394-0.018,9.57v19.38v38.76
			v38.76c-0.476,10,4.301,17.767,12.07,22.14c4.199,2.057,7.346,2.877,13.375,2.723h19.379h38.761h38.76
			c6.319,0.275,12.519-0.756,21.806,1.156c8.413,1.887,16.18,6.273,22.223,12.355c6.024,6.113,10.281,13.943,12.089,22.375
			c1.707,9.346,0.761,15.229,1.018,21.68v38.76v38.76c-0.021,6.586,0.047,12.637-0.048,19.662
			c-0.169,8.576-2.934,17.098-7.709,24.234c-4.84,7.1-11.639,12.803-19.54,16.246c-7.371,3.623-18.089,4.045-23.483,3.777H0V605.397
			z"/>
	</g>
</g>
<path fill-rule="evenodd" clip-rule="evenodd" fill="#282A1F" d="M93.135,799.298l450.263-450.264l8.537,8.537l5.375-38.363
	l-38.362,5.376l8.536,8.536L77.221,783.384L93.135,799.298z"/>
<polygon fill-rule="evenodd" clip-rule="evenodd" fill="#E68A00" points="93.135,797.885 78.633,783.384 528.19,333.828 
	528.896,333.121 528.19,332.414 521.074,325.298 556.136,320.383 551.223,355.445 544.105,348.327 543.398,347.62 542.691,348.327 
	93.135,797.885 "/>
<polygon fill-rule="evenodd" clip-rule="evenodd" fill="#77C21D" points="93.135,796.47 80.05,783.385 528.898,334.535 
	530.312,333.121 528.898,331.707 523.202,326.01 554.96,321.558 550.51,353.319 544.812,347.62 543.397,346.206 541.983,347.62 
	93.135,796.47 "/>
<polygon fill-rule="evenodd" clip-rule="evenodd" fill="#282A1F" points="93.136,795.057 81.464,783.385 529.605,335.242 
	531.019,333.828 531.725,333.122 531.019,332.415 529.605,331 525.329,326.723 553.786,322.731 549.797,351.192 545.519,346.914 
	544.104,345.5 543.397,344.794 542.691,345.5 541.275,346.914 93.136,795.057 "/>
<g>
	<polygon fill-rule="evenodd" clip-rule="evenodd" fill="#77C21D" points="128.738,744.054 119.464,734.783 475.549,378.695 
		477.235,377.009 475.549,375.324 472.15,371.924 494.764,368.754 491.594,391.367 488.195,387.968 486.508,386.284 
		484.823,387.968 128.738,744.054 	"/>
	<polygon fill-rule="evenodd" clip-rule="evenodd" fill="#E68A00" points="128.739,741.225 122.293,734.782 476.964,380.111 
		478.649,378.422 480.062,377.009 478.649,375.594 476.964,373.91 476.401,373.347 492.417,371.102 490.171,387.115 
		489.611,386.554 487.922,384.869 486.509,383.457 485.096,384.869 483.41,386.554 128.739,741.225 	"/>
</g>
<g>
	<g>
		<path fill-rule="evenodd" clip-rule="evenodd" fill="#666666" d="M1035.628,295.318H747.065c-2.371,0.039-5.015-0.115-6.26,0.189
			c-1.559,0.334-3.007,1.111-4.155,2.226c-1.133,1.126-1.949,2.548-2.295,4.09c-0.354,1.235-0.174,3.752-0.221,6.144v14.161v14.159
			v7.079c0.132,2.516-0.475,6.144-1.997,8.784c-2.843,5.601-9.596,9.098-15.473,8.732H702.37h-14.294h-7.148
			c-1.21-0.002-2.339,0.008-3.617-0.007c-1.579-0.026-3.157-0.264-4.682-0.708c-6.124-1.781-10.885-7.265-11.709-13.542
			c-0.146-0.774-0.135-1.561-0.18-2.339v-1.769v-3.54v-7.08h-4.452l8.603-11.003l8.602,11.004l-4.452-0.001l0.001,7.08v3.54v1.769
			c0.044,0.4,0.007,0.802,0.099,1.188c0.396,3.138,2.827,5.937,5.896,6.825c0.766,0.216,1.556,0.337,2.362,0.355
			c1.103,0.013,2.357,0.004,3.529,0.005h7.147l14.295,0.001l14.295-0.001c3.688,0.175,6.553-1.57,8.164-4.408
			c0.759-1.535,1.062-2.683,1.006-4.886l-0.001-7.08v-14.158v-14.161c0.103-2.309-0.278-4.572,0.427-7.965
			c0.696-3.073,2.312-5.912,4.557-8.119c2.254-2.2,5.144-3.755,8.253-4.416c3.447-0.625,5.616-0.278,7.995-0.372h288.562"/>
	</g>
</g>
<g>
	<g>
		<path fill-rule="evenodd" clip-rule="evenodd" fill="#27A5CC" d="M229.016,742.77L463.5,508.22l58.622-58.638
			c4.376-4.293,10.702-11.063,18.109-15.98c7.284-4.893,15.145-9.12,23.587-11.667c16.747-5.446,35.007-5.782,51.968-1.097
			c34.276,9.096,61.091,40.066,65.286,75.242c2.341,17.406-0.601,35.488-8.359,51.311c-3.917,7.861-8.799,15.34-14.872,21.672
			c-5.722,6.158-10.012,10.129-15.087,15.297l14.675,14.69l-51.152-5.623l-5.554-51.147l14.674,14.691
			c4.611-4.685,10.39-10.203,14.033-14.203c3.552-3.611,6.237-7.904,8.495-12.357c4.409-8.973,6.125-19.354,4.762-29.319
			c-2.342-20.011-17.762-37.788-37.244-42.948c-9.68-2.664-20.188-2.486-29.729,0.63c-4.844,1.388-9.244,3.903-13.42,6.638
			c-4.17,2.73-7.343,6.17-12.796,11.542l-58.622,58.637l-234.483,234.55L229.016,742.77z"/>
	</g>
</g>
<g>
	<g>
		<path fill-rule="evenodd" clip-rule="evenodd" fill="#27A5CC" d="M744.907,149.547l-63.216,63.233l-15.804,15.809
			c-1.181,1.158-2.885,2.983-4.883,4.309c-1.963,1.319-4.082,2.458-6.358,3.146c-4.515,1.468-9.438,1.559-14.011,0.295
			c-9.24-2.452-16.47-10.802-17.601-20.285c-0.631-4.693,0.162-9.568,2.254-13.833c1.056-2.119,2.372-4.136,4.009-5.843
			c1.543-1.66,2.699-2.73,4.068-4.124l-3.957-3.96l13.791,1.516l1.497,13.789l-3.956-3.96c-1.243,1.263-2.801,2.75-3.783,3.829
			c-0.958,0.973-1.682,2.131-2.29,3.332c-1.188,2.419-1.651,5.217-1.284,7.904c0.632,5.395,4.788,10.188,10.041,11.579
			c2.609,0.718,5.442,0.67,8.015-0.17c1.306-0.374,2.492-1.052,3.618-1.79c1.124-0.736,1.979-1.664,3.449-3.111l15.805-15.809
			l63.216-63.233L744.907,149.547z"/>
		<path fill-rule="evenodd" clip-rule="evenodd" fill="#BA00FF" d="M647.162,235.219c-2.032,0-4.05-0.272-5.995-0.811
			c-8.479-2.25-15.109-9.893-16.146-18.591c-0.58-4.319,0.154-8.825,2.064-12.718c1.046-2.102,2.278-3.902,3.654-5.339
			c0.987-1.06,1.783-1.847,2.625-2.68c0.467-0.462,0.933-0.924,1.427-1.426l1.389-1.414l-1.336-1.338l6.542,0.72l0.709,6.54
			l-1.365-1.365l-1.416,1.437c-0.435,0.445-0.912,0.916-1.387,1.386c-0.876,0.87-1.781,1.766-2.448,2.499
			c-0.937,0.95-1.778,2.167-2.595,3.775c-1.378,2.805-1.899,6.021-1.481,9.078c0.722,6.179,5.457,11.64,11.509,13.242
			c1.365,0.377,2.802,0.57,4.25,0.57c1.684,0,3.332-0.26,4.897-0.771c1.565-0.447,2.952-1.27,4.094-2.017
			c1.116-0.732,1.95-1.564,3.104-2.714l0.654-0.648l15.813-15.818l61.801-61.82l4.554,4.552l-61.803,61.818l-15.804,15.81
			l-0.586,0.583c-1.1,1.098-2.467,2.465-3.988,3.474c-2.072,1.393-3.976,2.338-5.829,2.895
			C651.825,234.856,649.514,235.219,647.162,235.219L647.162,235.219z"/>
	</g>
</g>
<path fill-rule="evenodd" clip-rule="evenodd" fill="#FFFFFF" d="M107.147,674.02l264.65-264.639l41.913-41.901l20.954-20.95
	c1.921-1.948,3.149-3.083,4.125-4.573c0.978-1.493,1.877-3.064,2.372-4.797c1.114-3.408,1.178-7.164,0.226-10.624
	c-1.843-6.962-8.196-12.473-15.35-13.31c-3.561-0.487-7.271,0.126-10.479,1.702c-1.59,0.807-3.124,1.767-4.416,3.035
	c-1.429,1.304-3.4,3.368-5.076,5.017l5.251,5.244l-18.278-1.984l-2.011-18.282l5.251,5.244c1.847-1.813,3.266-3.346,5.467-5.391
	c2.263-2.171,4.936-3.915,7.745-5.315c5.655-2.773,12.116-3.825,18.337-2.988c12.571,1.5,23.641,11.083,26.892,23.333
	c1.674,6.062,1.554,12.587-0.394,18.574c-0.91,3.016-2.42,5.826-4.169,8.428c-1.757,2.647-4.176,4.908-5.712,6.472l-20.955,20.952
	l-41.912,41.899l-264.651,264.64L107.147,674.02z"/>
<path fill-rule="evenodd" clip-rule="evenodd" fill="#282A1F" d="M531.241,455.97l0.069-0.066l-58.624,58.639L358.979,628.282
	L245.273,742.019l13.231,13.228L372.21,641.508L485.917,527.77l58.62-58.636c0.945-0.931,1.773-1.756,2.556-2.534
	c4.192-4.172,7.503-7.467,11.837-10.303c4.074-2.668,9.555-5.956,15.914-7.818c11.254-3.647,23.806-3.908,35.365-0.725
	c23.346,6.182,41.686,27.32,44.519,51.393c1.585,11.808-0.444,24.203-5.718,34.926l-0.025,0.057l-0.028,0.056
	c-3.097,6.104-6.319,10.782-10.139,14.696c-1.448,1.586-3.258,3.456-5.837,6.035c-1.078,1.078-2.19,2.183-3.302,3.284
	c-1.077,1.068-2.159,2.139-3.206,3.186c-0.628,0.628-1.243,1.249-1.841,1.854l-7.076,7.182l-1.711-1.716l1.618,14.909l14.912,1.64
	l-1.588-1.59l6.951-7.065c0.714-0.727,1.413-1.432,2.104-2.122c1.073-1.073,2.122-2.11,3.172-3.15
	c0.992-0.98,1.982-1.962,2.994-2.975c1.688-1.688,3.969-3.992,6.619-6.844l0.055-0.06l0.054-0.059
	c4.925-5.132,9.345-11.596,13.141-19.21c6.831-13.933,9.47-30.119,7.397-45.517l-0.009-0.074l-0.009-0.075
	c-1.863-15.624-8.75-30.298-18.968-42.074c-10.217-11.775-23.766-20.653-38.954-24.685l-0.049-0.013l-0.05-0.015
	c-15.075-4.164-31.487-3.822-46.212,0.967l-0.101,0.033l-0.104,0.031c-6.624,1.998-13.46,5.397-20.896,10.396
	c-5.495,3.646-10.482,8.63-14.488,12.636C532.66,454.567,531.928,455.298,531.241,455.97L531.241,455.97z"/>
<g>
	<g>
		<path fill-rule="evenodd" clip-rule="evenodd" fill="#666666" d="M551.567,607.79c-15.668-0.002-30.907-5.016-42.949-14.133
			c-2.413-1.686-4.396-3.518-5.999-5.004l-1.391-1.279l-0.289-0.256l-0.276-0.283l-4.387-4.371l-8.774-8.77l-7.6-7.617l-1.135,1.125
			l-20.297,20.281l-3.489-28.48l-5.943-48.518l-2.169-17.771l17.762,2.184l48.519,5.941l28.506,3.484l-20.313,20.297l-1.115,1.123
			l7.616,7.609l8.761,8.768l3.92,3.92c0.471,0.398,0.925,0.826,1.369,1.238l0.223,0.195l0.131,0.096l0.605,0.461
			c2.342,1.812,5.606,2.857,8.959,2.857c2.619,0,5.091-0.604,7.185-1.752c1.329-0.746,2.646-1.717,3.807-2.836
			c1.731-1.693,3.729-3.684,5.704-5.672l2.837-2.836l17.671-17.672l35.374-35.377l35.364-35.365l0.233-0.232l0.249-0.23
			c5.179-4.715,6.965-10.363,5.282-16.76c-1.093-3.133-2.021-4.822-5.817-8.428l-0.126-0.125l-0.13-0.121l-17.521-17.505
			l-35.037-35.05l-35.023-35.03l-0.228-0.221l-0.214-0.229c-1.361-1.488-2.95-3.016-4.636-4.637
			c-4.407-4.244-9.903-9.523-15.396-17.895c-7.432-11.789-11.225-25.255-11.107-39.168c0.172-13.867,4.237-27.274,11.756-38.853
			l0.12-0.176l0.11-0.175c5.616-8.093,10.956-13.245,15.236-17.379c1.666-1.611,3.281-3.155,4.851-4.848l0.19-0.208l0.198-0.194
			L774.757,9.902L784.657,0l9.898,9.902l20.355,20.343l9.902,9.902l-9.908,9.89L612.886,252.055
			c-1.622,1.696-3.519,3.554-5.356,5.363c-2.659,2.613-6.686,6.578-7.633,8.019c-1.787,2.781-2.666,5.684-2.707,8.683
			c-0.006,2.84,0.797,5.774,2.266,8.105l0.221,0.341l0.201,0.363c0.791,1.213,4.455,4.812,6.887,7.191
			c1.849,1.822,3.774,3.716,5.616,5.622l34.849,34.852l35.04,35.037l17.224,17.237c7.195,6.572,16.772,18.98,20.615,32.884
			c8.041,25.193-0.562,56.229-20.554,74.109l-35.034,35.021l-35.363,35.371l-17.691,17.688l-3.066,3.062
			c-1.939,1.959-3.881,3.898-6.006,5.977c-4.947,4.789-10.446,8.842-16.406,12.104C575.634,604.778,563.731,607.788,551.567,607.79
			L551.567,607.79z"/>
		<path fill-rule="evenodd" clip-rule="evenodd" fill="#BA00FF" d="M551.567,600.793c-14.143-0.006-27.891-4.52-38.733-12.717
			c-2.211-1.559-3.911-3.125-5.409-4.51l-1.485-1.355l-0.253-0.234l-0.084-0.086l-4.381-4.375l-8.764-8.773l-7.601-7.617
			l-4.954-4.951l-4.951,4.951l-1.125,1.125l-10.152,10.139l-1.744-14.24l-5.94-48.506l-1.093-8.9l8.884,1.098l48.525,5.934
			l14.241,1.746L516.4,519.663l-1.116,1.125l-4.954,4.947l4.941,4.953l7.619,7.621l8.771,8.764l3.917,3.912l0.191,0.203l0.208,0.17
			c0.389,0.332,0.762,0.678,1.128,1.033l0.418,0.377l0.707,0.531l0.347,0.262c3.54,2.744,8.358,4.322,13.235,4.322
			c3.793,0,7.441-0.906,10.553-2.625c1.924-1.074,3.732-2.424,5.289-3.922c1.803-1.754,3.813-3.764,5.808-5.77l2.827-2.828
			l17.668-17.678l35.38-35.363l35.358-35.375c7.312-6.66,9.922-15.09,7.59-23.941l-0.068-0.275l-0.09-0.266
			c-1.592-4.539-3.366-7.156-7.601-11.18l-17.655-17.639l-35.036-35.037l-35.034-35.037c-1.666-1.821-3.362-3.459-5.165-5.193
			c-4.384-4.219-9.338-8.988-14.402-16.679c-6.585-10.46-10.044-22.703-9.95-35.261c0.152-12.503,3.836-24.648,10.631-35.111
			l0.053-0.081l0.162-0.267c5.084-7.305,9.908-11.964,14.162-16.085l0.606-0.594c1.575-1.514,3.116-3.002,4.601-4.61L779.711,14.847
			l4.945-4.951l4.947,4.951l20.353,20.345l4.948,4.948l-4.948,4.945L607.945,247.11c-1.677,1.725-3.528,3.55-5.327,5.317
			c-4.754,4.672-7.383,7.376-8.551,9.146c-2.529,3.92-3.81,8.073-3.877,12.438c-0.014,4.29,1.174,8.505,3.342,11.942l0.094,0.139
			l0.092,0.179l0.148,0.25l0.15,0.249c0.946,1.443,2.853,3.47,7.85,8.35c1.803,1.773,3.68,3.624,5.477,5.482l34.941,34.937
			l35.031,35.044l17.229,17.232c6.663,6.086,15.389,17.356,18.812,29.804c7.309,22.871-0.503,50.951-18.469,67.02l-0.146,0.133
			l-0.133,0.139l-35.041,35.021l-35.361,35.381l-17.689,17.684l-3.067,3.074c-1.926,1.926-3.846,3.855-5.946,5.914
			c-4.459,4.305-9.468,8.004-14.867,10.959C573.29,598.083,562.551,600.788,551.567,600.793L551.567,600.793z"/>
		<path fill-rule="evenodd" clip-rule="evenodd" fill="#E68A00" d="M805.008,40.141L602.991,242.156
			c-5.771,5.966-12.697,12.126-15.022,15.962c-3.035,4.685-4.685,10.19-4.775,15.79c-0.013,5.59,1.485,11.124,4.441,15.8
			c2.176,3.934,8.852,9.718,14.655,15.748l35.034,35.037l35.044,35.04l17.521,17.513c6.549,5.897,14.02,16.38,16.785,26.675
			c6.829,20.893-1.226,46.258-16.672,59.895l-35.375,35.375l-35.367,35.375l-17.688,17.68c-3.008,2.996-5.774,5.805-8.975,8.939
			c-3.965,3.838-8.459,7.156-13.329,9.83c-19.564,10.742-44.913,8.955-62.486-4.535c-2.277-1.557-4.189-3.535-6.238-5.344
			l-4.374-4.375l-8.755-8.76l-17.525-17.521l-11.017,11.02l-5.937-48.518l48.512,5.945l-11.015,11.008l17.516,17.525l8.761,8.762
			l4.377,4.371c1.099,0.881,2,1.971,3.184,2.697c8.745,6.785,21.688,7.697,31.477,2.299c2.436-1.361,4.686-3.016,6.734-4.967
			c2.756-2.699,5.83-5.818,8.745-8.717l17.683-17.688l35.365-35.369l35.377-35.369c9.565-8.699,12.331-20.107,9.29-31.119
			c-1.92-5.672-4.008-9.268-9.595-14.578L651.82,396.07l-35.03-35.036l-35.043-35.037c-5.457-5.97-12-10.626-18.645-20.768
			c-5.887-9.332-8.916-20.349-8.812-31.363c0.133-11.027,3.424-22.022,9.494-31.351c6.984-10.074,13.203-14.591,18.861-20.702
			L784.664,19.792"/>
		<path fill-rule="evenodd" clip-rule="evenodd" fill="#77C21D" d="M551.567,586.79c-11.225,0.004-22.078-3.576-30.531-10.055
			l-0.149-0.127l-0.169-0.119c-1.235-0.844-2.497-2.004-3.816-3.232c-0.496-0.455-0.982-0.914-1.482-1.363l-4.292-4.289
			l-8.768-8.768l-17.521-17.508l-4.948-4.945l-4.954,4.949l-0.856,0.867l-3.106-25.377l25.381,3.104l-0.869,0.861l-4.954,4.959
			l4.941,4.947l17.524,17.512l8.764,8.76l4.377,4.381l0.279,0.27l0.304,0.24c0.279,0.23,0.525,0.479,0.791,0.723
			c0.714,0.664,1.586,1.484,2.744,2.246c5.999,4.557,13.644,7.061,21.561,7.061c6.142,0,12.127-1.506,17.309-4.365
			c3.002-1.68,5.738-3.707,8.184-6.033c1.913-1.879,3.923-3.891,5.93-5.896l2.928-2.93l17.691-17.691l35.373-35.371l35.375-35.377
			c10.865-9.869,14.986-23.779,11.088-37.922l-0.058-0.195l-0.071-0.184c-2.445-7.25-5.321-11.646-11.396-17.416l-17.399-17.395
			l-35.021-35.023l-35.05-35.047c-1.602-1.75-3.502-3.582-5.351-5.366c-4.039-3.871-8.209-7.882-12.404-14.286
			c-5.007-7.934-7.75-17.723-7.659-27.462c0.124-9.659,3.081-19.464,8.359-27.589c4.319-6.229,8.45-10.218,12.45-14.079
			c1.965-1.874,3.855-3.709,5.688-5.685L784.666,29.694l10.441,10.447l-197.062,197.07c-1.754,1.8-3.512,3.541-5.236,5.23
			c-4.676,4.617-8.719,8.595-10.823,12.032c-3.65,5.651-5.687,12.393-5.79,19.334c-0.036,7.02,1.832,13.696,5.369,19.393
			c2.023,3.603,5.93,7.438,10.457,11.88c1.725,1.692,3.511,3.447,5.213,5.229l35.147,35.138l35.037,35.034l17.506,17.509
			l0.139,0.133l0.137,0.12c5.382,4.844,12.278,14.205,14.723,23.296l0.05,0.182l0.058,0.174c5.697,17.5-0.6,40.053-14.662,52.475
			l-0.159,0.146l-0.168,0.15l-35.364,35.379l-35.37,35.365L596.623,563.1l-3.08,3.078c-1.888,1.889-3.771,3.779-5.837,5.803
			c-3.514,3.402-7.499,6.332-11.802,8.689C568.622,584.676,560.21,586.793,551.567,586.79L551.567,586.79z"/>
	</g>
</g>
<path fill-rule="evenodd" clip-rule="evenodd" fill="#FFFFFF" d="M443.702,598.305l0.021-0.02l-17.472,17.476l-33.888,33.898
	l-33.888,33.896l3.943,3.942l33.888-33.897l33.888-33.898l17.47-17.474c0.282-0.278,0.529-0.523,0.762-0.756
	c1.25-1.243,2.236-2.226,3.528-3.07c1.214-0.796,2.848-1.775,4.742-2.331c3.354-1.087,7.095-1.164,10.54-0.215
	c6.958,1.841,12.424,8.142,13.268,15.315c0.473,3.52-0.132,7.214-1.704,10.409l-0.007,0.018l-0.008,0.017
	c-0.923,1.819-1.884,3.213-3.021,4.379c-0.432,0.473-0.971,1.031-1.74,1.8c-0.321,0.321-0.653,0.65-0.984,0.979
	c-0.321,0.318-0.644,0.637-0.955,0.949c-0.188,0.188-0.371,0.372-0.549,0.554l-2.109,2.139l-0.509-0.51l0.482,4.442l4.444,0.489
	l-0.473-0.475l2.071-2.105c0.213-0.216,0.422-0.428,0.627-0.633c0.32-0.319,0.633-0.629,0.945-0.938
	c0.296-0.293,0.591-0.584,0.893-0.887c0.503-0.502,1.183-1.189,1.973-2.039l0.016-0.018l0.016-0.018
	c1.468-1.529,2.785-3.456,3.917-5.726c2.036-4.152,2.822-8.977,2.204-13.565l-0.002-0.022l-0.003-0.021
	c-0.555-4.657-2.607-9.03-5.653-12.539c-3.045-3.511-7.083-6.157-11.609-7.357l-0.015-0.004l-0.014-0.005
	c-4.493-1.24-9.385-1.14-13.772,0.289l-0.03,0.009l-0.031,0.01c-1.975,0.596-4.012,1.608-6.228,3.099
	c-1.638,1.086-3.125,2.572-4.318,3.765C444.124,597.887,443.906,598.104,443.702,598.305L443.702,598.305z"/>
<g>
	<g>
		<path fill-rule="evenodd" clip-rule="evenodd" fill="#666666" d="M548.364,533.083c-8.17,0-16.141-2.629-22.484-7.415
			c-1.339-0.948-2.377-1.913-3.151-2.632l-0.527-0.483l-0.255-0.229l-0.238-0.237l-1.924-1.921L414.745,415.13l-13.721,13.717
			l-3.132-24.6l-2.695-21.189l-1.98-15.578l15.581,1.98l21.191,2.691l24.609,3.137l-13.727,13.722l105.029,105.021l1.598,1.602
			c0.133,0.115,0.262,0.235,0.393,0.353l0.193,0.155c-0.016-0.015-0.014-0.02,0.005-0.02c0.032,0,0.132,0.022,0.259,0.022
			c0.118,0,0.201-0.022,0.221-0.026c0.051-0.034,0.189-0.135,0.318-0.259c0.69-0.671,1.528-1.519,2.369-2.358l1.246-1.245
			l7.669-7.674l15.365-15.362l15.366-15.367l0.204-0.201l0.216-0.196c0.508-0.462,0.592-0.68,0.535-0.991
			c-0.067-0.172-0.1-0.241-0.107-0.254c-0.009-0.012-0.212-0.272-0.844-0.879l-0.121-0.104l-0.113-0.12l-7.681-7.684l-15.365-15.364
			l-15.367-15.364l-0.192-0.191l-0.182-0.199c-0.468-0.51-1.071-1.092-1.771-1.767c-2.031-1.959-4.82-4.641-7.6-8.857l-0.059-0.096
			l-0.061-0.091c-3.819-6.031-5.822-13.035-5.798-20.256c0.056-7.243,2.142-14.22,6.039-20.232l0.094-0.148l0.1-0.146
			c2.786-4.039,5.354-6.515,7.42-8.499c0.631-0.613,1.253-1.2,1.85-1.849l0.161-0.175l0.17-0.173L862.628,39.81l8.603-8.598
			l8.601,8.598l8.926,8.926l8.599,8.603l-8.599,8.601L578.554,376.14l0.142-0.15c-0.817,0.848-1.687,1.71-2.531,2.54
			c-0.829,0.816-2.05,2.019-2.541,2.586c-0.043,0.091-0.083,0.223-0.083,0.371c0,0.067,0.054,0.211,0.072,0.247l0.048,0.074
			c0.458,0.524,1.555,1.604,2.304,2.342c0.85,0.833,1.734,1.702,2.581,2.586l-0.164-0.17l15.369,15.369l15.366,15.371l7.53,7.528
			c3.863,3.577,8.549,9.783,10.58,16.911c4.187,13.104-0.155,29.13-10.405,38.438l-15.16,15.154l-15.365,15.366l-7.683,7.684
			l-1.469,1.463c-0.812,0.821-1.632,1.638-2.523,2.515c-2.579,2.487-5.415,4.57-8.484,6.246
			C560.782,531.534,554.633,533.083,548.364,533.083L548.364,533.083z"/>
		<path fill-rule="evenodd" clip-rule="evenodd" fill="#E41B5B" d="M548.364,530.044c-7.506,0-14.839-2.419-20.654-6.805
			c-1.217-0.862-2.132-1.71-2.864-2.383l-0.582-0.539l-0.253-0.228l-0.155-0.155l-1.923-1.923L416.893,412.98l-2.15-2.15
			l-2.148,2.15l-9.337,9.338l-2.35-18.456l-2.692-21.188l-1.487-11.682l11.685,1.479l21.193,2.696l18.459,2.354l-9.34,9.338
			l-2.153,2.15l2.153,2.147L543.75,496.181l1.602,1.602l0.056,0.058l0.062,0.055l0.186,0.173l0.202,0.18l0.079,0.071l0.083,0.064
			l0.195,0.153l0.666,0.52l0.896,0.089c0.137,0.017,0.338,0.038,0.57,0.038c0.416,0,0.823-0.064,1.182-0.184l0.388-0.127
			l0.337-0.226c0.121-0.081,0.451-0.313,0.755-0.61c0.616-0.599,1.361-1.348,2.115-2.104l0.286-0.285l1.24-1.247l7.668-7.67
			l15.367-15.361l15.367-15.367l0.188-0.185l0.125-0.112c0.467-0.429,1.857-1.702,1.484-3.78l-0.054-0.285l-0.103-0.266
			c-0.136-0.357-0.213-0.493-0.226-0.524l-0.122-0.247l-0.163-0.218c-0.129-0.173-0.452-0.562-1.182-1.255l-0.084-0.076
			l-0.064-0.064l-7.711-7.718l-15.37-15.359l-15.364-15.367l-0.191-0.191l-0.088-0.107c-0.512-0.553-1.156-1.178-1.904-1.901
			c-1.951-1.877-4.59-4.417-7.172-8.339l-0.088-0.137c-3.508-5.541-5.348-11.981-5.329-18.623
			c0.053-6.635,1.974-13.068,5.552-18.593l0.124-0.196l0.03-0.038c2.621-3.795,5.055-6.137,7.012-8.019l0.279-0.266
			c0.578-0.562,1.145-1.113,1.701-1.71l0.158-0.177l0.109-0.105L864.776,41.959l6.453-6.448l6.455,6.448l8.924,8.926l6.452,6.45
			l-6.452,6.453L576.514,373.88l-0.008-0.003c-0.797,0.829-1.645,1.669-2.472,2.479c-1.076,1.061-2.169,2.146-2.709,2.771
			l-0.265,0.304l-0.175,0.369c-0.253,0.52-0.385,1.104-0.385,1.688c0,0.898,0.387,1.614,0.507,1.811l0.139,0.234l0.222,0.275
			c0.468,0.534,1.324,1.389,2.317,2.365l0.143,0.142c0.785,0.769,1.592,1.562,2.37,2.368l0.041,0.043l0.036,0.038l0.076,0.077h0.004
			l15.246,15.24l15.366,15.371l7.528,7.528c3.563,3.309,7.948,9.074,9.808,15.602c3.841,12.031-0.175,26.861-9.525,35.353
			l-15.267,15.254l-15.363,15.367l-7.686,7.684l-1.465,1.46c-0.815,0.824-1.622,1.628-2.504,2.49
			c-2.357,2.272-4.989,4.212-7.81,5.754C559.764,528.625,554.122,530.044,548.364,530.044L548.364,530.044z"/>
		<path fill-rule="evenodd" clip-rule="evenodd" fill="#E68A00" d="M880.155,57.336L569.954,367.538
			c-2.507,2.593-5.516,5.268-6.524,6.937c-1.312,2.037-2.026,4.437-2.051,6.884c0.004,2.438,0.671,4.86,1.972,6.902
			c0.959,1.722,3.885,4.263,6.431,6.908l15.368,15.367l15.366,15.366l7.682,7.682c2.873,2.591,6.158,7.181,7.387,11.682
			c3.022,9.132-0.44,20.187-7.154,26.108l-15.368,15.366l-15.365,15.365l-7.685,7.686c-1.303,1.298-2.506,2.521-3.896,3.881
			c-1.725,1.667-3.68,3.105-5.8,4.262c-8.516,4.65-19.587,3.817-27.285-2.109c-0.996-0.685-1.839-1.551-2.731-2.346l-1.921-1.921
			L422.427,405.61l-7.683-7.684l-4.786,4.787l-2.695-21.19l21.19,2.696l-4.786,4.783l7.682,7.687L537.3,502.633l1.922,1.921
			c0.481,0.388,0.878,0.864,1.395,1.185c3.833,2.979,9.483,3.402,13.745,1.065c1.059-0.586,2.039-1.305,2.927-2.152
			c1.199-1.168,2.538-2.528,3.8-3.788l7.684-7.681l15.366-15.364l15.367-15.367c4.153-3.775,5.34-8.749,3.991-13.562
			c-0.849-2.482-1.77-4.054-4.222-6.383l-7.684-7.682l-15.365-15.367l-15.369-15.369c-2.394-2.614-5.261-4.661-8.185-9.103
			c-2.588-4.083-3.93-8.902-3.914-13.711c0.036-4.81,1.453-9.604,4.08-13.664c3.027-4.382,5.736-6.338,8.191-8.995L871.231,48.413"
			/>
		<path fill-rule="evenodd" clip-rule="evenodd" fill="#F2F2F2" d="M548.368,517.878c-4.952,0-9.74-1.583-13.483-4.466l-0.066-0.05
			l-0.073-0.048c-0.548-0.379-1.1-0.891-1.686-1.435c-0.223-0.206-0.446-0.409-0.671-0.612l-1.863-1.86l-105.95-105.948
			l-7.683-7.681l-2.149-2.15l-2.15,2.15l-0.402,0.4l-1.42-11.146l11.147,1.418l-0.402,0.402l-2.152,2.149l2.152,2.15l7.685,7.684
			l105.947,105.947l1.922,1.923l0.123,0.122l0.135,0.107c0.127,0.101,0.238,0.211,0.354,0.318c0.305,0.285,0.671,0.63,1.158,0.953
			c2.646,2.028,6.017,3.139,9.506,3.139c2.656,0,5.24-0.648,7.477-1.874c1.312-0.729,2.506-1.609,3.564-2.62
			c0.854-0.83,1.746-1.729,2.635-2.619l1.214-1.216l7.686-7.684l15.366-15.364l15.365-15.365c4.725-4.288,6.5-10.351,4.774-16.537
			l-0.026-0.079l-0.026-0.084c-1.084-3.16-2.348-5.081-5.006-7.6l-7.629-7.633l-15.365-15.365l-15.366-15.366
			c-0.7-0.769-1.534-1.573-2.344-2.35c-1.773-1.702-3.604-3.467-5.453-6.275c-2.201-3.481-3.426-7.767-3.41-12.026
			c0.03-4.222,1.307-8.495,3.591-12.02c1.872-2.713,3.667-4.444,5.407-6.12c0.846-0.819,1.667-1.609,2.463-2.474L871.231,52.712
			l4.626,4.621L567.802,365.387c-0.771,0.8-1.55,1.566-2.308,2.315c-2.021,1.985-3.766,3.704-4.669,5.196
			c-1.581,2.459-2.456,5.395-2.486,8.426c0.003,3.088,0.836,6.023,2.414,8.521c0.902,1.556,2.598,3.223,4.556,5.149
			c0.752,0.735,1.531,1.502,2.28,2.279L583,412.685l15.365,15.367l7.683,7.684l0.056,0.058l0.056,0.05
			c2.368,2.136,5.406,6.242,6.492,10.224l0.019,0.074l0.026,0.079c2.533,7.652-0.168,17.483-6.278,22.873l-0.073,0.062l-0.066,0.067
			l-15.365,15.364l-15.366,15.364l-7.686,7.688l-1.227,1.226c-0.856,0.857-1.709,1.717-2.645,2.632
			c-1.524,1.473-3.253,2.744-5.129,3.762C555.723,516.976,552.096,517.878,548.368,517.878L548.368,517.878z"/>
	</g>
</g>
</svg>
